<svg xmlns="http://www.w3.org/2000/svg" version="1.1" xmlns:xlink="http://www.w3.org/1999/xlink" xmlns:svgjs="http://svgjs.dev/svgjs" viewBox="0 0 800 800" width="800" height="800"><g stroke-width="1.5" stroke="hsl(261, 60%, 38%)" fill="none"><circle r="1.763157894736842" cx="0" cy="0" fill="hsl(261, 60%, 38%)" stroke="none"></circle><circle r="1.763157894736842" cx="66.66666666666667" cy="0" fill="hsl(261, 60%, 38%)" stroke="none"></circle><circle r="1.763157894736842" cx="133.33333333333334" cy="0" fill="hsl(261, 60%, 38%)" stroke="none"></circle><circle r="1.763157894736842" cx="200" cy="0" fill="hsl(261, 60%, 38%)" stroke="none"></circle><circle r="1.763157894736842" cx="266.6666666666667" cy="0" fill="hsl(261, 60%, 38%)" stroke="none"></circle><circle r="1.763157894736842" cx="333.33333333333337" cy="0" fill="hsl(261, 60%, 38%)" stroke="none"></circle><circle r="1.763157894736842" cx="400.00000000000006" cy="0" fill="hsl(261, 60%, 38%)" stroke="none"></circle><circle r="1.763157894736842" cx="466.66666666666674" cy="0" fill="hsl(261, 60%, 38%)" stroke="none"></circle><circle r="1.763157894736842" cx="533.3333333333334" cy="0" fill="hsl(261, 60%, 38%)" stroke="none"></circle><circle r="1.763157894736842" cx="600" cy="0" fill="hsl(261, 60%, 38%)" stroke="none"></circle><circle r="1.763157894736842" cx="666.6666666666666" cy="0" fill="hsl(261, 60%, 38%)" stroke="none"></circle><circle r="1.763157894736842" cx="733.3333333333333" cy="0" fill="hsl(261, 60%, 38%)" stroke="none"></circle><circle r="1.763157894736842" cx="799.9999999999999" cy="0" fill="hsl(261, 60%, 38%)" stroke="none"></circle><circle r="1.763157894736842" cx="0" cy="44.44444444444444" fill="hsl(261, 60%, 38%)" stroke="none"></circle><circle r="1.763157894736842" cx="66.66666666666667" cy="44.44444444444444" fill="hsl(261, 60%, 38%)" stroke="none"></circle><circle r="1.763157894736842" cx="133.33333333333334" cy="44.44444444444444" fill="hsl(261, 60%, 38%)" stroke="none"></circle><circle r="1.763157894736842" cx="200" cy="44.44444444444444" fill="hsl(261, 60%, 38%)" stroke="none"></circle><circle r="1.763157894736842" cx="266.6666666666667" cy="44.44444444444444" fill="hsl(261, 60%, 38%)" stroke="none"></circle><circle r="1.763157894736842" cx="333.33333333333337" cy="44.44444444444444" fill="hsl(261, 60%, 38%)" stroke="none"></circle><circle r="1.763157894736842" cx="400.00000000000006" cy="44.44444444444444" fill="hsl(261, 60%, 38%)" stroke="none"></circle><circle r="1.763157894736842" cx="466.66666666666674" cy="44.44444444444444" fill="hsl(261, 60%, 38%)" stroke="none"></circle><circle r="1.763157894736842" cx="533.3333333333334" cy="44.44444444444444" fill="hsl(261, 60%, 38%)" stroke="none"></circle><circle r="1.763157894736842" cx="600" cy="44.44444444444444" fill="hsl(261, 60%, 38%)" stroke="none"></circle><circle r="1.763157894736842" cx="666.6666666666666" cy="44.44444444444444" fill="hsl(261, 60%, 38%)" stroke="none"></circle><circle r="1.763157894736842" cx="733.3333333333333" cy="44.44444444444444" fill="hsl(261, 60%, 38%)" stroke="none"></circle><circle r="1.763157894736842" cx="799.9999999999999" cy="44.44444444444444" fill="hsl(261, 60%, 38%)" stroke="none"></circle><circle r="1.763157894736842" cx="0" cy="88.88888888888889" fill="hsl(261, 60%, 38%)" stroke="none"></circle><circle r="1.763157894736842" cx="66.66666666666667" cy="88.88888888888889" fill="hsl(261, 60%, 38%)" stroke="none"></circle><circle r="1.763157894736842" cx="133.33333333333334" cy="88.88888888888889" fill="hsl(261, 60%, 38%)" stroke="none"></circle><circle r="1.763157894736842" cx="200" cy="88.88888888888889" fill="hsl(261, 60%, 38%)" stroke="none"></circle><circle r="1.763157894736842" cx="266.6666666666667" cy="88.88888888888889" fill="hsl(261, 60%, 38%)" stroke="none"></circle><circle r="1.763157894736842" cx="333.33333333333337" cy="88.88888888888889" fill="hsl(261, 60%, 38%)" stroke="none"></circle><circle r="1.763157894736842" cx="400.00000000000006" cy="88.88888888888889" fill="hsl(261, 60%, 38%)" stroke="none"></circle><circle r="1.763157894736842" cx="466.66666666666674" cy="88.88888888888889" fill="hsl(261, 60%, 38%)" stroke="none"></circle><circle r="1.763157894736842" cx="533.3333333333334" cy="88.88888888888889" fill="hsl(261, 60%, 38%)" stroke="none"></circle><circle r="1.763157894736842" cx="600" cy="88.88888888888889" fill="hsl(261, 60%, 38%)" stroke="none"></circle><circle r="1.763157894736842" cx="666.6666666666666" cy="88.88888888888889" fill="hsl(261, 60%, 38%)" stroke="none"></circle><circle r="1.763157894736842" cx="733.3333333333333" cy="88.88888888888889" fill="hsl(261, 60%, 38%)" stroke="none"></circle><circle r="1.763157894736842" cx="799.9999999999999" cy="88.88888888888889" fill="hsl(261, 60%, 38%)" stroke="none"></circle><circle r="1.763157894736842" cx="0" cy="133.33333333333331" fill="hsl(261, 60%, 38%)" stroke="none"></circle><circle r="1.763157894736842" cx="66.66666666666667" cy="133.33333333333331" fill="hsl(261, 60%, 38%)" stroke="none"></circle><circle r="1.763157894736842" cx="133.33333333333334" cy="133.33333333333331" fill="hsl(261, 60%, 38%)" stroke="none"></circle><circle r="1.763157894736842" cx="200" cy="133.33333333333331" fill="hsl(261, 60%, 38%)" stroke="none"></circle><circle r="1.763157894736842" cx="266.6666666666667" cy="133.33333333333331" fill="hsl(261, 60%, 38%)" stroke="none"></circle><circle r="1.763157894736842" cx="333.33333333333337" cy="133.33333333333331" fill="hsl(261, 60%, 38%)" stroke="none"></circle><circle r="1.763157894736842" cx="400.00000000000006" cy="133.33333333333331" fill="hsl(261, 60%, 38%)" stroke="none"></circle><circle r="1.763157894736842" cx="466.66666666666674" cy="133.33333333333331" fill="hsl(261, 60%, 38%)" stroke="none"></circle><circle r="1.763157894736842" cx="533.3333333333334" cy="133.33333333333331" fill="hsl(261, 60%, 38%)" stroke="none"></circle><circle r="1.763157894736842" cx="600" cy="133.33333333333331" fill="hsl(261, 60%, 38%)" stroke="none"></circle><circle r="1.763157894736842" cx="666.6666666666666" cy="133.33333333333331" fill="hsl(261, 60%, 38%)" stroke="none"></circle><circle r="1.763157894736842" cx="733.3333333333333" cy="133.33333333333331" fill="hsl(261, 60%, 38%)" stroke="none"></circle><circle r="1.763157894736842" cx="799.9999999999999" cy="133.33333333333331" fill="hsl(261, 60%, 38%)" stroke="none"></circle><circle r="1.763157894736842" cx="0" cy="177.77777777777777" fill="hsl(261, 60%, 38%)" stroke="none"></circle><circle r="1.763157894736842" cx="66.66666666666667" cy="177.77777777777777" fill="hsl(261, 60%, 38%)" stroke="none"></circle><circle r="1.763157894736842" cx="133.33333333333334" cy="177.77777777777777" fill="hsl(261, 60%, 38%)" stroke="none"></circle><circle r="1.763157894736842" cx="200" cy="177.77777777777777" fill="hsl(261, 60%, 38%)" stroke="none"></circle><circle r="1.763157894736842" cx="266.6666666666667" cy="177.77777777777777" fill="hsl(261, 60%, 38%)" stroke="none"></circle><circle r="1.763157894736842" cx="333.33333333333337" cy="177.77777777777777" fill="hsl(261, 60%, 38%)" stroke="none"></circle><circle r="1.763157894736842" cx="400.00000000000006" cy="177.77777777777777" fill="hsl(261, 60%, 38%)" stroke="none"></circle><circle r="1.763157894736842" cx="466.66666666666674" cy="177.77777777777777" fill="hsl(261, 60%, 38%)" stroke="none"></circle><circle r="1.763157894736842" cx="533.3333333333334" cy="177.77777777777777" fill="hsl(261, 60%, 38%)" stroke="none"></circle><circle r="1.763157894736842" cx="600" cy="177.77777777777777" fill="hsl(261, 60%, 38%)" stroke="none"></circle><circle r="1.763157894736842" cx="666.6666666666666" cy="177.77777777777777" fill="hsl(261, 60%, 38%)" stroke="none"></circle><circle r="1.763157894736842" cx="733.3333333333333" cy="177.77777777777777" fill="hsl(261, 60%, 38%)" stroke="none"></circle><circle r="1.763157894736842" cx="799.9999999999999" cy="177.77777777777777" fill="hsl(261, 60%, 38%)" stroke="none"></circle><circle r="1.763157894736842" cx="0" cy="222.22222222222223" fill="hsl(261, 60%, 38%)" stroke="none"></circle><circle r="1.763157894736842" cx="66.66666666666667" cy="222.22222222222223" fill="hsl(261, 60%, 38%)" stroke="none"></circle><circle r="1.763157894736842" cx="133.33333333333334" cy="222.22222222222223" fill="hsl(261, 60%, 38%)" stroke="none"></circle><circle r="1.763157894736842" cx="200" cy="222.22222222222223" fill="hsl(261, 60%, 38%)" stroke="none"></circle><circle r="1.763157894736842" cx="266.6666666666667" cy="222.22222222222223" fill="hsl(261, 60%, 38%)" stroke="none"></circle><circle r="1.763157894736842" cx="333.33333333333337" cy="222.22222222222223" fill="hsl(261, 60%, 38%)" stroke="none"></circle><circle r="1.763157894736842" cx="400.00000000000006" cy="222.22222222222223" fill="hsl(261, 60%, 38%)" stroke="none"></circle><circle r="1.763157894736842" cx="466.66666666666674" cy="222.22222222222223" fill="hsl(261, 60%, 38%)" stroke="none"></circle><circle r="1.763157894736842" cx="533.3333333333334" cy="222.22222222222223" fill="hsl(261, 60%, 38%)" stroke="none"></circle><circle r="1.763157894736842" cx="600" cy="222.22222222222223" fill="hsl(261, 60%, 38%)" stroke="none"></circle><circle r="1.763157894736842" cx="666.6666666666666" cy="222.22222222222223" fill="hsl(261, 60%, 38%)" stroke="none"></circle><circle r="1.763157894736842" cx="733.3333333333333" cy="222.22222222222223" fill="hsl(261, 60%, 38%)" stroke="none"></circle><circle r="1.763157894736842" cx="799.9999999999999" cy="222.22222222222223" fill="hsl(261, 60%, 38%)" stroke="none"></circle><circle r="1.763157894736842" cx="0" cy="266.6666666666667" fill="hsl(261, 60%, 38%)" stroke="none"></circle><circle r="1.763157894736842" cx="66.66666666666667" cy="266.6666666666667" fill="hsl(261, 60%, 38%)" stroke="none"></circle><circle r="1.763157894736842" cx="133.33333333333334" cy="266.6666666666667" fill="hsl(261, 60%, 38%)" stroke="none"></circle><circle r="1.763157894736842" cx="200" cy="266.6666666666667" fill="hsl(261, 60%, 38%)" stroke="none"></circle><circle r="1.763157894736842" cx="266.6666666666667" cy="266.6666666666667" fill="hsl(261, 60%, 38%)" stroke="none"></circle><circle r="1.763157894736842" cx="333.33333333333337" cy="266.6666666666667" fill="hsl(261, 60%, 38%)" stroke="none"></circle><circle r="1.763157894736842" cx="400.00000000000006" cy="266.6666666666667" fill="hsl(261, 60%, 38%)" stroke="none"></circle><circle r="1.763157894736842" cx="466.66666666666674" cy="266.6666666666667" fill="hsl(261, 60%, 38%)" stroke="none"></circle><circle r="1.763157894736842" cx="533.3333333333334" cy="266.6666666666667" fill="hsl(261, 60%, 38%)" stroke="none"></circle><circle r="1.763157894736842" cx="600" cy="266.6666666666667" fill="hsl(261, 60%, 38%)" stroke="none"></circle><circle r="1.763157894736842" cx="666.6666666666666" cy="266.6666666666667" fill="hsl(261, 60%, 38%)" stroke="none"></circle><circle r="1.763157894736842" cx="733.3333333333333" cy="266.6666666666667" fill="hsl(261, 60%, 38%)" stroke="none"></circle><circle r="1.763157894736842" cx="799.9999999999999" cy="266.6666666666667" fill="hsl(261, 60%, 38%)" stroke="none"></circle><circle r="1.763157894736842" cx="0" cy="311.11111111111114" fill="hsl(261, 60%, 38%)" stroke="none"></circle><circle r="1.763157894736842" cx="66.66666666666667" cy="311.11111111111114" fill="hsl(261, 60%, 38%)" stroke="none"></circle><circle r="1.763157894736842" cx="133.33333333333334" cy="311.11111111111114" fill="hsl(261, 60%, 38%)" stroke="none"></circle><circle r="1.763157894736842" cx="200" cy="311.11111111111114" fill="hsl(261, 60%, 38%)" stroke="none"></circle><circle r="1.763157894736842" cx="266.6666666666667" cy="311.11111111111114" fill="hsl(261, 60%, 38%)" stroke="none"></circle><circle r="1.763157894736842" cx="333.33333333333337" cy="311.11111111111114" fill="hsl(261, 60%, 38%)" stroke="none"></circle><circle r="1.763157894736842" cx="400.00000000000006" cy="311.11111111111114" fill="hsl(261, 60%, 38%)" stroke="none"></circle><circle r="1.763157894736842" cx="466.66666666666674" cy="311.11111111111114" fill="hsl(261, 60%, 38%)" stroke="none"></circle><circle r="1.763157894736842" cx="533.3333333333334" cy="311.11111111111114" fill="hsl(261, 60%, 38%)" stroke="none"></circle><circle r="1.763157894736842" cx="600" cy="311.11111111111114" fill="hsl(261, 60%, 38%)" stroke="none"></circle><circle r="1.763157894736842" cx="666.6666666666666" cy="311.11111111111114" fill="hsl(261, 60%, 38%)" stroke="none"></circle><circle r="1.763157894736842" cx="733.3333333333333" cy="311.11111111111114" fill="hsl(261, 60%, 38%)" stroke="none"></circle><circle r="1.763157894736842" cx="799.9999999999999" cy="311.11111111111114" fill="hsl(261, 60%, 38%)" stroke="none"></circle><circle r="1.763157894736842" cx="0" cy="355.5555555555556" fill="hsl(261, 60%, 38%)" stroke="none"></circle><circle r="1.763157894736842" cx="66.66666666666667" cy="355.5555555555556" fill="hsl(261, 60%, 38%)" stroke="none"></circle><circle r="1.763157894736842" cx="133.33333333333334" cy="355.5555555555556" fill="hsl(261, 60%, 38%)" stroke="none"></circle><circle r="1.763157894736842" cx="200" cy="355.5555555555556" fill="hsl(261, 60%, 38%)" stroke="none"></circle><circle r="1.763157894736842" cx="266.6666666666667" cy="355.5555555555556" fill="hsl(261, 60%, 38%)" stroke="none"></circle><circle r="1.763157894736842" cx="333.33333333333337" cy="355.5555555555556" fill="hsl(261, 60%, 38%)" stroke="none"></circle><circle r="1.763157894736842" cx="400.00000000000006" cy="355.5555555555556" fill="hsl(261, 60%, 38%)" stroke="none"></circle><circle r="1.763157894736842" cx="466.66666666666674" cy="355.5555555555556" fill="hsl(261, 60%, 38%)" stroke="none"></circle><circle r="1.763157894736842" cx="533.3333333333334" cy="355.5555555555556" fill="hsl(261, 60%, 38%)" stroke="none"></circle><circle r="1.763157894736842" cx="600" cy="355.5555555555556" fill="hsl(261, 60%, 38%)" stroke="none"></circle><circle r="1.763157894736842" cx="666.6666666666666" cy="355.5555555555556" fill="hsl(261, 60%, 38%)" stroke="none"></circle><circle r="1.763157894736842" cx="733.3333333333333" cy="355.5555555555556" fill="hsl(261, 60%, 38%)" stroke="none"></circle><circle r="1.763157894736842" cx="799.9999999999999" cy="355.5555555555556" fill="hsl(261, 60%, 38%)" stroke="none"></circle><circle r="1.763157894736842" cx="0" cy="400.00000000000006" fill="hsl(261, 60%, 38%)" stroke="none"></circle><circle r="1.763157894736842" cx="66.66666666666667" cy="400.00000000000006" fill="hsl(261, 60%, 38%)" stroke="none"></circle><circle r="1.763157894736842" cx="133.33333333333334" cy="400.00000000000006" fill="hsl(261, 60%, 38%)" stroke="none"></circle><circle r="1.763157894736842" cx="200" cy="400.00000000000006" fill="hsl(261, 60%, 38%)" stroke="none"></circle><circle r="1.763157894736842" cx="266.6666666666667" cy="400.00000000000006" fill="hsl(261, 60%, 38%)" stroke="none"></circle><circle r="1.763157894736842" cx="333.33333333333337" cy="400.00000000000006" fill="hsl(261, 60%, 38%)" stroke="none"></circle><circle r="1.763157894736842" cx="400.00000000000006" cy="400.00000000000006" fill="hsl(261, 60%, 38%)" stroke="none"></circle><circle r="1.763157894736842" cx="466.66666666666674" cy="400.00000000000006" fill="hsl(261, 60%, 38%)" stroke="none"></circle><circle r="1.763157894736842" cx="533.3333333333334" cy="400.00000000000006" fill="hsl(261, 60%, 38%)" stroke="none"></circle><circle r="1.763157894736842" cx="600" cy="400.00000000000006" fill="hsl(261, 60%, 38%)" stroke="none"></circle><circle r="1.763157894736842" cx="666.6666666666666" cy="400.00000000000006" fill="hsl(261, 60%, 38%)" stroke="none"></circle><circle r="1.763157894736842" cx="733.3333333333333" cy="400.00000000000006" fill="hsl(261, 60%, 38%)" stroke="none"></circle><circle r="1.763157894736842" cx="799.9999999999999" cy="400.00000000000006" fill="hsl(261, 60%, 38%)" stroke="none"></circle><circle r="1.763157894736842" cx="0" cy="444.4444444444445" fill="hsl(261, 60%, 38%)" stroke="none"></circle><circle r="1.763157894736842" cx="66.66666666666667" cy="444.4444444444445" fill="hsl(261, 60%, 38%)" stroke="none"></circle><circle r="1.763157894736842" cx="133.33333333333334" cy="444.4444444444445" fill="hsl(261, 60%, 38%)" stroke="none"></circle><circle r="1.763157894736842" cx="200" cy="444.4444444444445" fill="hsl(261, 60%, 38%)" stroke="none"></circle><circle r="1.763157894736842" cx="266.6666666666667" cy="444.4444444444445" fill="hsl(261, 60%, 38%)" stroke="none"></circle><circle r="1.763157894736842" cx="333.33333333333337" cy="444.4444444444445" fill="hsl(261, 60%, 38%)" stroke="none"></circle><circle r="1.763157894736842" cx="400.00000000000006" cy="444.4444444444445" fill="hsl(261, 60%, 38%)" stroke="none"></circle><circle r="1.763157894736842" cx="466.66666666666674" cy="444.4444444444445" fill="hsl(261, 60%, 38%)" stroke="none"></circle><circle r="1.763157894736842" cx="533.3333333333334" cy="444.4444444444445" fill="hsl(261, 60%, 38%)" stroke="none"></circle><circle r="1.763157894736842" cx="600" cy="444.4444444444445" fill="hsl(261, 60%, 38%)" stroke="none"></circle><circle r="1.763157894736842" cx="666.6666666666666" cy="444.4444444444445" fill="hsl(261, 60%, 38%)" stroke="none"></circle><circle r="1.763157894736842" cx="733.3333333333333" cy="444.4444444444445" fill="hsl(261, 60%, 38%)" stroke="none"></circle><circle r="1.763157894736842" cx="799.9999999999999" cy="444.4444444444445" fill="hsl(261, 60%, 38%)" stroke="none"></circle><circle r="1.763157894736842" cx="0" cy="488.88888888888897" fill="hsl(261, 60%, 38%)" stroke="none"></circle><circle r="1.763157894736842" cx="66.66666666666667" cy="488.88888888888897" fill="hsl(261, 60%, 38%)" stroke="none"></circle><circle r="1.763157894736842" cx="133.33333333333334" cy="488.88888888888897" fill="hsl(261, 60%, 38%)" stroke="none"></circle><circle r="1.763157894736842" cx="200" cy="488.88888888888897" fill="hsl(261, 60%, 38%)" stroke="none"></circle><circle r="1.763157894736842" cx="266.6666666666667" cy="488.88888888888897" fill="hsl(261, 60%, 38%)" stroke="none"></circle><circle r="1.763157894736842" cx="333.33333333333337" cy="488.88888888888897" fill="hsl(261, 60%, 38%)" stroke="none"></circle><circle r="1.763157894736842" cx="400.00000000000006" cy="488.88888888888897" fill="hsl(261, 60%, 38%)" stroke="none"></circle><circle r="1.763157894736842" cx="466.66666666666674" cy="488.88888888888897" fill="hsl(261, 60%, 38%)" stroke="none"></circle><circle r="1.763157894736842" cx="533.3333333333334" cy="488.88888888888897" fill="hsl(261, 60%, 38%)" stroke="none"></circle><circle r="1.763157894736842" cx="600" cy="488.88888888888897" fill="hsl(261, 60%, 38%)" stroke="none"></circle><circle r="1.763157894736842" cx="666.6666666666666" cy="488.88888888888897" fill="hsl(261, 60%, 38%)" stroke="none"></circle><circle r="1.763157894736842" cx="733.3333333333333" cy="488.88888888888897" fill="hsl(261, 60%, 38%)" stroke="none"></circle><circle r="1.763157894736842" cx="799.9999999999999" cy="488.88888888888897" fill="hsl(261, 60%, 38%)" stroke="none"></circle><circle r="1.763157894736842" cx="0" cy="533.3333333333334" fill="hsl(261, 60%, 38%)" stroke="none"></circle><circle r="1.763157894736842" cx="66.66666666666667" cy="533.3333333333334" fill="hsl(261, 60%, 38%)" stroke="none"></circle><circle r="1.763157894736842" cx="133.33333333333334" cy="533.3333333333334" fill="hsl(261, 60%, 38%)" stroke="none"></circle><circle r="1.763157894736842" cx="200" cy="533.3333333333334" fill="hsl(261, 60%, 38%)" stroke="none"></circle><circle r="1.763157894736842" cx="266.6666666666667" cy="533.3333333333334" fill="hsl(261, 60%, 38%)" stroke="none"></circle><circle r="1.763157894736842" cx="333.33333333333337" cy="533.3333333333334" fill="hsl(261, 60%, 38%)" stroke="none"></circle><circle r="1.763157894736842" cx="400.00000000000006" cy="533.3333333333334" fill="hsl(261, 60%, 38%)" stroke="none"></circle><circle r="1.763157894736842" cx="466.66666666666674" cy="533.3333333333334" fill="hsl(261, 60%, 38%)" stroke="none"></circle><circle r="1.763157894736842" cx="533.3333333333334" cy="533.3333333333334" fill="hsl(261, 60%, 38%)" stroke="none"></circle><circle r="1.763157894736842" cx="600" cy="533.3333333333334" fill="hsl(261, 60%, 38%)" stroke="none"></circle><circle r="1.763157894736842" cx="666.6666666666666" cy="533.3333333333334" fill="hsl(261, 60%, 38%)" stroke="none"></circle><circle r="1.763157894736842" cx="733.3333333333333" cy="533.3333333333334" fill="hsl(261, 60%, 38%)" stroke="none"></circle><circle r="1.763157894736842" cx="799.9999999999999" cy="533.3333333333334" fill="hsl(261, 60%, 38%)" stroke="none"></circle><circle r="1.763157894736842" cx="0" cy="577.7777777777778" fill="hsl(261, 60%, 38%)" stroke="none"></circle><circle r="1.763157894736842" cx="66.66666666666667" cy="577.7777777777778" fill="hsl(261, 60%, 38%)" stroke="none"></circle><circle r="1.763157894736842" cx="133.33333333333334" cy="577.7777777777778" fill="hsl(261, 60%, 38%)" stroke="none"></circle><circle r="1.763157894736842" cx="200" cy="577.7777777777778" fill="hsl(261, 60%, 38%)" stroke="none"></circle><circle r="1.763157894736842" cx="266.6666666666667" cy="577.7777777777778" fill="hsl(261, 60%, 38%)" stroke="none"></circle><circle r="1.763157894736842" cx="333.33333333333337" cy="577.7777777777778" fill="hsl(261, 60%, 38%)" stroke="none"></circle><circle r="1.763157894736842" cx="400.00000000000006" cy="577.7777777777778" fill="hsl(261, 60%, 38%)" stroke="none"></circle><circle r="1.763157894736842" cx="466.66666666666674" cy="577.7777777777778" fill="hsl(261, 60%, 38%)" stroke="none"></circle><circle r="1.763157894736842" cx="533.3333333333334" cy="577.7777777777778" fill="hsl(261, 60%, 38%)" stroke="none"></circle><circle r="1.763157894736842" cx="600" cy="577.7777777777778" fill="hsl(261, 60%, 38%)" stroke="none"></circle><circle r="1.763157894736842" cx="666.6666666666666" cy="577.7777777777778" fill="hsl(261, 60%, 38%)" stroke="none"></circle><circle r="1.763157894736842" cx="733.3333333333333" cy="577.7777777777778" fill="hsl(261, 60%, 38%)" stroke="none"></circle><circle r="1.763157894736842" cx="799.9999999999999" cy="577.7777777777778" fill="hsl(261, 60%, 38%)" stroke="none"></circle><circle r="1.763157894736842" cx="0" cy="622.2222222222223" fill="hsl(261, 60%, 38%)" stroke="none"></circle><circle r="1.763157894736842" cx="66.66666666666667" cy="622.2222222222223" fill="hsl(261, 60%, 38%)" stroke="none"></circle><circle r="1.763157894736842" cx="133.33333333333334" cy="622.2222222222223" fill="hsl(261, 60%, 38%)" stroke="none"></circle><circle r="1.763157894736842" cx="200" cy="622.2222222222223" fill="hsl(261, 60%, 38%)" stroke="none"></circle><circle r="1.763157894736842" cx="266.6666666666667" cy="622.2222222222223" fill="hsl(261, 60%, 38%)" stroke="none"></circle><circle r="1.763157894736842" cx="333.33333333333337" cy="622.2222222222223" fill="hsl(261, 60%, 38%)" stroke="none"></circle><circle r="1.763157894736842" cx="400.00000000000006" cy="622.2222222222223" fill="hsl(261, 60%, 38%)" stroke="none"></circle><circle r="1.763157894736842" cx="466.66666666666674" cy="622.2222222222223" fill="hsl(261, 60%, 38%)" stroke="none"></circle><circle r="1.763157894736842" cx="533.3333333333334" cy="622.2222222222223" fill="hsl(261, 60%, 38%)" stroke="none"></circle><circle r="1.763157894736842" cx="600" cy="622.2222222222223" fill="hsl(261, 60%, 38%)" stroke="none"></circle><circle r="1.763157894736842" cx="666.6666666666666" cy="622.2222222222223" fill="hsl(261, 60%, 38%)" stroke="none"></circle><circle r="1.763157894736842" cx="733.3333333333333" cy="622.2222222222223" fill="hsl(261, 60%, 38%)" stroke="none"></circle><circle r="1.763157894736842" cx="799.9999999999999" cy="622.2222222222223" fill="hsl(261, 60%, 38%)" stroke="none"></circle><circle r="1.763157894736842" cx="0" cy="666.6666666666667" fill="hsl(261, 60%, 38%)" stroke="none"></circle><circle r="1.763157894736842" cx="66.66666666666667" cy="666.6666666666667" fill="hsl(261, 60%, 38%)" stroke="none"></circle><circle r="1.763157894736842" cx="133.33333333333334" cy="666.6666666666667" fill="hsl(261, 60%, 38%)" stroke="none"></circle><circle r="1.763157894736842" cx="200" cy="666.6666666666667" fill="hsl(261, 60%, 38%)" stroke="none"></circle><circle r="1.763157894736842" cx="266.6666666666667" cy="666.6666666666667" fill="hsl(261, 60%, 38%)" stroke="none"></circle><circle r="1.763157894736842" cx="333.33333333333337" cy="666.6666666666667" fill="hsl(261, 60%, 38%)" stroke="none"></circle><circle r="1.763157894736842" cx="400.00000000000006" cy="666.6666666666667" fill="hsl(261, 60%, 38%)" stroke="none"></circle><circle r="1.763157894736842" cx="466.66666666666674" cy="666.6666666666667" fill="hsl(261, 60%, 38%)" stroke="none"></circle><circle r="1.763157894736842" cx="533.3333333333334" cy="666.6666666666667" fill="hsl(261, 60%, 38%)" stroke="none"></circle><circle r="1.763157894736842" cx="600" cy="666.6666666666667" fill="hsl(261, 60%, 38%)" stroke="none"></circle><circle r="1.763157894736842" cx="666.6666666666666" cy="666.6666666666667" fill="hsl(261, 60%, 38%)" stroke="none"></circle><circle r="1.763157894736842" cx="733.3333333333333" cy="666.6666666666667" fill="hsl(261, 60%, 38%)" stroke="none"></circle><circle r="1.763157894736842" cx="799.9999999999999" cy="666.6666666666667" fill="hsl(261, 60%, 38%)" stroke="none"></circle><circle r="1.763157894736842" cx="0" cy="711.1111111111112" fill="hsl(261, 60%, 38%)" stroke="none"></circle><circle r="1.763157894736842" cx="66.66666666666667" cy="711.1111111111112" fill="hsl(261, 60%, 38%)" stroke="none"></circle><circle r="1.763157894736842" cx="133.33333333333334" cy="711.1111111111112" fill="hsl(261, 60%, 38%)" stroke="none"></circle><circle r="1.763157894736842" cx="200" cy="711.1111111111112" fill="hsl(261, 60%, 38%)" stroke="none"></circle><circle r="1.763157894736842" cx="266.6666666666667" cy="711.1111111111112" fill="hsl(261, 60%, 38%)" stroke="none"></circle><circle r="1.763157894736842" cx="333.33333333333337" cy="711.1111111111112" fill="hsl(261, 60%, 38%)" stroke="none"></circle><circle r="1.763157894736842" cx="400.00000000000006" cy="711.1111111111112" fill="hsl(261, 60%, 38%)" stroke="none"></circle><circle r="1.763157894736842" cx="466.66666666666674" cy="711.1111111111112" fill="hsl(261, 60%, 38%)" stroke="none"></circle><circle r="1.763157894736842" cx="533.3333333333334" cy="711.1111111111112" fill="hsl(261, 60%, 38%)" stroke="none"></circle><circle r="1.763157894736842" cx="600" cy="711.1111111111112" fill="hsl(261, 60%, 38%)" stroke="none"></circle><circle r="1.763157894736842" cx="666.6666666666666" cy="711.1111111111112" fill="hsl(261, 60%, 38%)" stroke="none"></circle><circle r="1.763157894736842" cx="733.3333333333333" cy="711.1111111111112" fill="hsl(261, 60%, 38%)" stroke="none"></circle><circle r="1.763157894736842" cx="799.9999999999999" cy="711.1111111111112" fill="hsl(261, 60%, 38%)" stroke="none"></circle><circle r="1.763157894736842" cx="0" cy="755.5555555555557" fill="hsl(261, 60%, 38%)" stroke="none"></circle><circle r="1.763157894736842" cx="66.66666666666667" cy="755.5555555555557" fill="hsl(261, 60%, 38%)" stroke="none"></circle><circle r="1.763157894736842" cx="133.33333333333334" cy="755.5555555555557" fill="hsl(261, 60%, 38%)" stroke="none"></circle><circle r="1.763157894736842" cx="200" cy="755.5555555555557" fill="hsl(261, 60%, 38%)" stroke="none"></circle><circle r="1.763157894736842" cx="266.6666666666667" cy="755.5555555555557" fill="hsl(261, 60%, 38%)" stroke="none"></circle><circle r="1.763157894736842" cx="333.33333333333337" cy="755.5555555555557" fill="hsl(261, 60%, 38%)" stroke="none"></circle><circle r="1.763157894736842" cx="400.00000000000006" cy="755.5555555555557" fill="hsl(261, 60%, 38%)" stroke="none"></circle><circle r="1.763157894736842" cx="466.66666666666674" cy="755.5555555555557" fill="hsl(261, 60%, 38%)" stroke="none"></circle><circle r="1.763157894736842" cx="533.3333333333334" cy="755.5555555555557" fill="hsl(261, 60%, 38%)" stroke="none"></circle><circle r="1.763157894736842" cx="600" cy="755.5555555555557" fill="hsl(261, 60%, 38%)" stroke="none"></circle><circle r="1.763157894736842" cx="666.6666666666666" cy="755.5555555555557" fill="hsl(261, 60%, 38%)" stroke="none"></circle><circle r="1.763157894736842" cx="733.3333333333333" cy="755.5555555555557" fill="hsl(261, 60%, 38%)" stroke="none"></circle><circle r="1.763157894736842" cx="799.9999999999999" cy="755.5555555555557" fill="hsl(261, 60%, 38%)" stroke="none"></circle><circle r="1.763157894736842" cx="0" cy="800.0000000000001" fill="hsl(261, 60%, 38%)" stroke="none"></circle><circle r="1.763157894736842" cx="66.66666666666667" cy="800.0000000000001" fill="hsl(261, 60%, 38%)" stroke="none"></circle><circle r="1.763157894736842" cx="133.33333333333334" cy="800.0000000000001" fill="hsl(261, 60%, 38%)" stroke="none"></circle><circle r="1.763157894736842" cx="200" cy="800.0000000000001" fill="hsl(261, 60%, 38%)" stroke="none"></circle><circle r="1.763157894736842" cx="266.6666666666667" cy="800.0000000000001" fill="hsl(261, 60%, 38%)" stroke="none"></circle><circle r="1.763157894736842" cx="333.33333333333337" cy="800.0000000000001" fill="hsl(261, 60%, 38%)" stroke="none"></circle><circle r="1.763157894736842" cx="400.00000000000006" cy="800.0000000000001" fill="hsl(261, 60%, 38%)" stroke="none"></circle><circle r="1.763157894736842" cx="466.66666666666674" cy="800.0000000000001" fill="hsl(261, 60%, 38%)" stroke="none"></circle><circle r="1.763157894736842" cx="533.3333333333334" cy="800.0000000000001" fill="hsl(261, 60%, 38%)" stroke="none"></circle><circle r="1.763157894736842" cx="600" cy="800.0000000000001" fill="hsl(261, 60%, 38%)" stroke="none"></circle><circle r="1.763157894736842" cx="666.6666666666666" cy="800.0000000000001" fill="hsl(261, 60%, 38%)" stroke="none"></circle><circle r="1.763157894736842" cx="733.3333333333333" cy="800.0000000000001" fill="hsl(261, 60%, 38%)" stroke="none"></circle><circle r="1.763157894736842" cx="799.9999999999999" cy="800.0000000000001" fill="hsl(261, 60%, 38%)" stroke="none"></circle></g></svg>