<svg width="384" height="176" viewBox="0 0 384 176" fill="none" xmlns="http://www.w3.org/2000/svg">
<rect width="384" height="176" />
<path d="M58.923 80.1L49.023 99.9L38.823 120H16.623L76.623 -1.78814e-06L116.673 80.1H94.1731L76.623 44.85L58.923 80.1ZM126.573 100.05L136.623 120H114.273L104.373 100.05H126.573ZM217.835 70.05H187.985C178.235 70.05 169.985 66.6 163.235 59.85C156.485 52.95 153.035 44.7 153.035 34.95C153.035 25.35 156.485 17.25 163.235 10.35C169.985 3.45 178.235 -1.78814e-06 187.985 -1.78814e-06V20.1C185.885 20.1 183.935 20.4 182.135 21.15C180.185 21.9 178.685 22.95 177.185 24.45C175.835 25.8 174.785 27.45 174.035 29.25C173.285 31.05 172.985 33 172.985 34.95C172.985 39.15 174.335 42.6 177.185 45.6C180.185 48.6 183.635 50.1 187.985 50.1H217.835C227.585 50.1 235.835 53.55 242.585 60.3C249.485 67.2 252.935 75.45 252.935 85.05C252.935 94.65 249.485 102.9 242.585 109.8C235.835 116.55 227.585 120 217.835 120V99.9C219.935 99.9 221.885 99.6 223.685 98.85C225.635 98.1 227.285 97.05 228.635 95.7C229.985 94.35 231.035 92.85 231.785 90.9C232.535 89.1 232.985 87.15 232.985 85.05C232.985 81 231.335 77.55 228.485 74.55C225.485 71.55 222.035 70.05 217.835 70.05ZM302.395 99.9H362.395V120H282.445L302.395 99.9ZM282.445 -1.78814e-06H302.395V3.29999V72.75L282.445 92.85V3.29999V-1.78814e-06Z" fill="#B278EC"/>
<path d="M58.923 80.1L58.0294 79.6513L58.0286 79.6528L58.923 80.1ZM49.023 99.9L49.9148 100.353L49.9175 100.347L49.023 99.9ZM38.823 120V121H39.437L39.7148 120.453L38.823 120ZM16.623 120L15.7286 119.553L15.005 121H16.623V120ZM76.623 -1.90735e-06L77.5175 -0.447215L76.623 -2.23607L75.7286 -0.447215L76.623 -1.90735e-06ZM116.673 80.1V81.1H118.291L117.567 79.6528L116.673 80.1ZM94.173 80.1L93.2779 80.5457L93.5538 81.1H94.173V80.1ZM76.623 44.85L77.5182 44.4043L76.6269 42.6139L75.7294 44.4013L76.623 44.85ZM126.573 100.05L127.466 99.6001L127.189 99.05H126.573V100.05ZM136.623 120V121H138.247L137.516 119.55L136.623 120ZM114.273 120L113.377 120.445L113.653 121H114.273V120ZM104.373 100.05V99.05H102.76L103.477 100.495L104.373 100.05ZM58.0286 79.6528L48.1286 99.4528L49.9175 100.347L59.8175 80.5472L58.0286 79.6528ZM48.1313 99.4475L37.9313 119.547L39.7148 120.453L49.9148 100.353L48.1313 99.4475ZM38.823 119H16.623V121H38.823V119ZM17.5175 120.447L77.5175 0.447212L75.7286 -0.447215L15.7286 119.553L17.5175 120.447ZM75.7286 0.447212L115.779 80.5472L117.567 79.6528L77.5175 -0.447215L75.7286 0.447212ZM116.673 79.1H94.173V81.1H116.673V79.1ZM95.0682 79.6543L77.5182 44.4043L75.7279 45.2957L93.2779 80.5457L95.0682 79.6543ZM75.7294 44.4013L58.0294 79.6513L59.8167 80.5487L77.5167 45.2987L75.7294 44.4013ZM125.68 100.5L135.73 120.45L137.516 119.55L127.466 99.6001L125.68 100.5ZM136.623 119H114.273V121H136.623V119ZM115.169 119.555L105.269 99.6055L103.477 100.495L113.377 120.445L115.169 119.555ZM104.373 101.05H126.573V99.05H104.373V101.05ZM163.235 59.85L162.52 60.5493L162.528 60.5571L163.235 59.85ZM163.235 10.35L163.95 11.0493L163.235 10.35ZM187.985 -1.90735e-06H188.985V-1H187.985V-1.90735e-06ZM187.985 20.1V21.1H188.985V20.1H187.985ZM182.135 21.15L182.494 22.0833L182.507 22.0784L182.52 22.0731L182.135 21.15ZM174.035 29.25L174.958 29.6346L174.035 29.25ZM177.185 45.6L176.46 46.2887L176.469 46.298L176.478 46.3071L177.185 45.6ZM242.585 60.3L241.878 61.0071L242.585 60.3ZM242.585 109.8L241.878 109.093L242.585 109.8ZM217.835 120H216.835V121H217.835V120ZM217.835 99.9V98.9H216.835V99.9H217.835ZM223.685 98.85L223.326 97.9167L223.313 97.9216L223.301 97.9269L223.685 98.85ZM228.635 95.7L227.928 94.9929V94.9929L228.635 95.7ZM231.785 90.9L230.862 90.5154L230.857 90.5281L230.852 90.541L231.785 90.9ZM228.485 74.55L229.21 73.8613L229.201 73.852L229.192 73.8429L228.485 74.55ZM217.835 69.05H187.985V71.05H217.835V69.05ZM187.985 69.05C178.5 69.05 170.504 65.7049 163.942 59.1429L162.528 60.5571C169.466 67.4951 177.971 71.05 187.985 71.05V69.05ZM163.95 59.1507C157.379 52.4341 154.035 44.4337 154.035 34.95H152.035C152.035 44.9663 155.591 53.4659 162.52 60.5493L163.95 59.1507ZM154.035 34.95C154.035 25.6231 157.374 17.771 163.95 11.0493L162.52 9.65071C155.596 16.729 152.035 25.0768 152.035 34.95H154.035ZM163.95 11.0493C170.51 4.34378 178.501 0.999998 187.985 0.999998V-1C177.969 -1 169.461 2.55622 162.52 9.65071L163.95 11.0493ZM186.985 -1.90735e-06V20.1H188.985V-1.90735e-06H186.985ZM187.985 19.1C185.791 19.1 183.703 19.4134 181.751 20.2269L182.52 22.0731C184.167 21.3866 185.98 21.1 187.985 21.1V19.1ZM181.776 20.2166C179.675 21.0249 178.06 22.1611 176.478 23.7429L177.892 25.1571C179.31 23.7389 180.696 22.7751 182.494 22.0833L181.776 20.2166ZM176.478 23.7429C175.024 25.1972 173.905 26.9615 173.112 28.8654L174.958 29.6346C175.665 27.9385 176.647 26.4027 177.892 25.1571L176.478 23.7429ZM173.112 28.8654C172.3 30.8141 171.985 32.9006 171.985 34.95H173.985C173.985 33.0994 174.27 31.2858 174.958 29.6346L173.112 28.8654ZM171.985 34.95C171.985 39.3993 173.429 43.0978 176.46 46.2887L177.91 44.9112C175.242 42.1022 173.985 38.9007 173.985 34.95H171.985ZM176.478 46.3071C179.66 49.4887 183.362 51.1 187.985 51.1V49.1C183.909 49.1 180.711 47.7113 177.892 44.8929L176.478 46.3071ZM187.985 51.1H217.835V49.1H187.985V51.1ZM217.835 51.1C227.321 51.1 235.316 54.4451 241.878 61.0071L243.292 59.5929C236.354 52.6549 227.85 49.1 217.835 49.1V51.1ZM241.878 61.0071C248.594 67.723 251.935 75.7201 251.935 85.05H253.935C253.935 75.1799 250.376 66.677 243.292 59.5929L241.878 61.0071ZM251.935 85.05C251.935 94.3799 248.594 102.377 241.878 109.093L243.292 110.507C250.376 103.423 253.935 94.9201 253.935 85.05H251.935ZM241.878 109.093C235.316 115.655 227.321 119 217.835 119V121C227.85 121 236.354 117.445 243.292 110.507L241.878 109.093ZM218.835 120V99.9H216.835V120H218.835ZM217.835 100.9C220.03 100.9 222.117 100.587 224.07 99.7731L223.301 97.9269C221.653 98.6134 219.841 98.9 217.835 98.9V100.9ZM224.044 99.7833C226.112 98.9879 227.884 97.865 229.342 96.4071L227.928 94.9929C226.686 96.2349 225.158 97.2121 223.326 97.9167L224.044 99.7833ZM229.342 96.4071C230.78 94.9698 231.913 93.3541 232.719 91.259L230.852 90.541C230.158 92.3459 229.191 93.7302 227.928 94.9929L229.342 96.4071ZM232.708 91.2846C233.503 89.377 233.985 87.2967 233.985 85.05H231.985C231.985 87.0033 231.567 88.823 230.862 90.5154L232.708 91.2846ZM233.985 85.05C233.985 80.6952 232.2 77.0087 229.21 73.8613L227.76 75.2387C230.47 78.0913 231.985 81.3048 231.985 85.05H233.985ZM229.192 73.8429C226.015 70.6653 222.314 69.05 217.835 69.05V71.05C221.756 71.05 224.956 72.4347 227.778 75.2571L229.192 73.8429ZM302.395 99.9V98.9H301.979L301.686 99.1955L302.395 99.9ZM362.395 99.9H363.395V98.9H362.395V99.9ZM362.395 120V121H363.395V120H362.395ZM282.445 120L281.736 119.296L280.044 121H282.445V120ZM282.445 -1.90735e-06V-1H281.445V-1.90735e-06H282.445ZM302.395 -1.90735e-06H303.395V-1H302.395V-1.90735e-06ZM302.395 72.75L303.105 73.4545L303.395 73.162V72.75H302.395ZM282.445 92.85H281.445V95.2771L283.155 93.5545L282.445 92.85ZM302.395 100.9H362.395V98.9H302.395V100.9ZM361.395 99.9V120H363.395V99.9H361.395ZM362.395 119H282.445V121H362.395V119ZM283.155 120.704L303.105 100.604L301.686 99.1955L281.736 119.296L283.155 120.704ZM282.445 0.999998H302.395V-1H282.445V0.999998ZM301.395 -1.90735e-06V3.29999H303.395V-1.90735e-06H301.395ZM301.395 3.29999V72.75H303.395V3.29999H301.395ZM301.686 72.0455L281.736 92.1455L283.155 93.5545L303.105 73.4545L301.686 72.0455ZM283.445 92.85V3.29999H281.445V92.85H283.445ZM283.445 3.29999V-1.90735e-06H281.445V3.29999H283.445Z"/>
<rect y="133" width="384" height="3" fill="white"/>
<path d="M17.2544 156.352V150.4L30.0864 163.2L42.8864 150.4V176H38.6624V160.704L30.0864 169.248L17.2544 156.352ZM79.5296 167.488L77.4176 171.712L75.2416 176H70.5056L83.3056 150.4L91.8496 167.488H87.0496L83.3056 159.968L79.5296 167.488ZM93.9616 171.744L96.1056 176H91.3376L89.2256 171.744H93.9616ZM123.297 163.744C122.305 165.184 121.057 166.208 119.553 166.816L124.801 176H119.905L112.481 163.168L116.289 163.2C117.441 163.2 118.433 162.784 119.265 161.952C120.129 161.12 120.545 160.096 120.545 158.912C120.545 157.76 120.129 156.768 119.265 155.936C118.433 155.104 117.441 154.688 116.289 154.688H107.745L107.265 154.208L105.057 150.4H116.289C118.625 150.4 120.641 151.232 122.305 152.896C123.969 154.592 124.801 156.576 124.801 158.912C124.801 160.704 124.321 162.304 123.297 163.744ZM148.469 164.992L159.541 176L148.469 164.992ZM159.541 150.4L148.469 161.44L159.541 150.4ZM165.557 150.4L152.757 163.2L165.557 176H159.541L148.469 164.992L146.677 163.232L148.469 161.44L159.541 150.4H165.557ZM186.953 175.648L191.209 171.712H204.009V176H186.953V175.648ZM186.953 150.4H204.009V154.688H191.209L186.953 150.4ZM186.953 161.088H191.209H204.009V165.344H191.209H186.953V161.088ZM228.417 150.4H241.217V154.688H232.705V176H228.417V154.688V150.4ZM270.105 154.624V171.712L265.849 176V150.4L270.105 154.624ZM308.462 150.4H312.718V175.936V175.968V176L291.438 156.864V150.4L308.462 165.728V150.4ZM355.098 170.976C356.186 170.464 357.146 169.76 357.978 168.832L362.234 170.24C361.658 171.104 360.986 171.904 360.186 172.608C359.418 173.312 358.586 173.92 357.658 174.432C356.762 174.944 355.802 175.328 354.746 175.584C353.722 175.872 352.666 176 351.546 176C347.994 176 345.018 174.72 342.522 172.224C340.026 169.728 338.746 166.752 338.746 163.2C338.746 159.68 339.994 156.672 342.522 154.176C344.986 151.648 347.994 150.4 351.546 150.4C353.306 150.4 354.97 150.72 356.538 151.392C358.074 152.064 359.45 152.992 360.634 154.176L357.562 157.184C355.898 155.52 353.914 154.688 351.546 154.688C349.21 154.688 347.194 155.488 345.498 157.184C343.834 158.848 343.034 160.864 343.034 163.2C343.034 165.536 343.834 167.584 345.498 169.248C347.162 170.912 349.21 171.712 351.546 171.712C352.826 171.712 354.01 171.456 355.098 170.976ZM351.546 165.344V161.088H362.234L357.978 165.344H351.546Z" fill="#C995FD"/>
</svg>
