<svg width="681" height="140" viewBox="0 0 681 140" fill="none" xmlns="http://www.w3.org/2000/svg">
<rect width="681" height="140"/>
<path d="M42.923 96.1L33.023 115.9L22.823 136H0.623047L60.623 16L100.673 96.1H78.1731L60.623 60.85L42.923 96.1ZM110.573 116.05L120.623 136H98.2731L88.3731 116.05H110.573ZM201.835 86.05H171.985C162.235 86.05 153.985 82.6 147.235 75.85C140.485 68.95 137.035 60.7 137.035 50.95C137.035 41.35 140.485 33.25 147.235 26.35C153.985 19.45 162.235 16 171.985 16V36.1C169.885 36.1 167.935 36.4 166.135 37.15C164.185 37.9 162.685 38.95 161.185 40.45C159.835 41.8 158.785 43.45 158.035 45.25C157.285 47.05 156.985 49 156.985 50.95C156.985 55.15 158.335 58.6 161.185 61.6C164.185 64.6 167.635 66.1 171.985 66.1H201.835C211.585 66.1 219.835 69.55 226.585 76.3C233.485 83.2 236.935 91.45 236.935 101.05C236.935 110.65 233.485 118.9 226.585 125.8C219.835 132.55 211.585 136 201.835 136V115.9C203.935 115.9 205.885 115.6 207.685 114.85C209.635 114.1 211.285 113.05 212.635 111.7C213.985 110.35 215.035 108.85 215.785 106.9C216.535 105.1 216.985 103.15 216.985 101.05C216.985 97 215.335 93.55 212.485 90.55C209.485 87.55 206.035 86.05 201.835 86.05ZM286.395 115.9H346.395V136H266.445L286.395 115.9ZM266.445 16H286.395V19.3V88.75L266.445 108.85V19.3V16Z" fill="url(#paint0_linear_0_1)"/>
<rect width="140" height="2" rx="1" transform="matrix(0 -1 -1 0 378 140)" fill="white"/>
<path d="M411.014 71.352V65.4L423.846 78.2L436.646 65.4V91H432.422V75.704L423.846 84.248L411.014 71.352ZM463.85 82.488L461.738 86.712L459.562 91H454.826L467.626 65.4L476.17 82.488H471.37L467.626 74.968L463.85 82.488ZM478.282 86.744L480.426 91H475.658L473.546 86.744H478.282ZM498.177 78.744C497.185 80.184 495.937 81.208 494.433 81.816L499.681 91H494.785L487.361 78.168L491.169 78.2C492.321 78.2 493.313 77.784 494.145 76.952C495.009 76.12 495.425 75.096 495.425 73.912C495.425 72.76 495.009 71.768 494.145 70.936C493.313 70.104 492.321 69.688 491.169 69.688H482.625L482.145 69.208L479.937 65.4H491.169C493.505 65.4 495.521 66.232 497.185 67.896C498.849 69.592 499.681 71.576 499.681 73.912C499.681 75.704 499.201 77.304 498.177 78.744ZM513.909 79.992L524.981 91L513.909 79.992ZM524.981 65.4L513.909 76.44L524.981 65.4ZM530.997 65.4L518.197 78.2L530.997 91H524.981L513.909 79.992L512.117 78.232L513.909 76.44L524.981 65.4H530.997ZM542.953 90.648L547.209 86.712H560.009V91H542.953V90.648ZM542.953 65.4H560.009V69.688H547.209L542.953 65.4ZM542.953 76.088H547.209H560.009V80.344H547.209H542.953V76.088ZM574.977 65.4H587.777V69.688H579.265V91H574.977V69.688V65.4ZM607.225 69.624V86.712L602.969 91V65.4L607.225 69.624ZM636.142 65.4H640.398V90.936V90.968V91L619.118 71.864V65.4L636.142 80.728V65.4ZM673.338 85.976C674.426 85.464 675.386 84.76 676.218 83.832L680.474 85.24C679.898 86.104 679.226 86.904 678.426 87.608C677.658 88.312 676.826 88.92 675.898 89.432C675.002 89.944 674.042 90.328 672.986 90.584C671.962 90.872 670.906 91 669.786 91C666.234 91 663.258 89.72 660.762 87.224C658.266 84.728 656.986 81.752 656.986 78.2C656.986 74.68 658.234 71.672 660.762 69.176C663.226 66.648 666.234 65.4 669.786 65.4C671.546 65.4 673.21 65.72 674.778 66.392C676.314 67.064 677.69 67.992 678.874 69.176L675.802 72.184C674.138 70.52 672.154 69.688 669.786 69.688C667.45 69.688 665.434 70.488 663.738 72.184C662.074 73.848 661.274 75.864 661.274 78.2C661.274 80.536 662.074 82.584 663.738 84.248C665.402 85.912 667.45 86.712 669.786 86.712C671.066 86.712 672.25 86.456 673.338 85.976ZM669.786 80.344V76.088H680.474L676.218 80.344H669.786Z" fill="url(#paint1_linear_0_1)"/>
<defs>
<linearGradient id="paint0_linear_0_1" x1="158.5" y1="4.5" x2="176" y2="182" gradientUnits="userSpaceOnUse">
<stop stop-color="#A760EE"/>
<stop offset="1" stop-color="#FA0EFF" stop-opacity="0"/>
</linearGradient>
<linearGradient id="paint1_linear_0_1" x1="548" y1="61" x2="548" y2="101" gradientUnits="userSpaceOnUse">
<stop stop-color="#B66DFF"/>
<stop offset="1" stop-color="#B66DFF" stop-opacity="0"/>
</linearGradient>
</defs>
</svg>
